<svg width="220" height="52" viewBox="0 0 220 52" fill="none" xmlns="http://www.w3.org/2000/svg">
<g clip-path="url(#clip0_2_5)">
<g clip-path="url(#clip1_2_5)">
<g clip-path="url(#clip2_2_5)">
<path fill-rule="evenodd" clip-rule="evenodd" d="M38.5744 5.79563H45.256C48.3556 5.79563 50.5956 6.25255 51.9761 7.16639C53.3565 8.08024 54.0467 9.52368 54.0467 11.4968C54.0467 12.826 53.708 13.9319 53.0306 14.8146C52.3532 15.6973 51.3782 16.2529 50.1055 16.4814V16.6371C51.6861 16.9383 52.8485 17.5328 53.5926 18.4207C54.3367 19.3086 54.7087 20.5106 54.7087 22.0267C54.7087 24.0725 54.0031 25.6743 52.5919 26.8322C51.1806 27.9901 49.2177 28.569 46.7031 28.569H38.5744V5.79563ZM42.2539 15.2041H45.7948C47.3344 15.2041 48.4582 14.9574 49.1664 14.4642C49.8746 13.9709 50.2287 13.1323 50.2287 11.9485C50.2287 10.8789 49.8464 10.1052 49.0817 9.62754C48.3171 9.14985 47.1034 8.911 45.4407 8.911H42.2539V15.2041ZM42.2539 18.226V25.438H46.1643C47.7039 25.438 48.8662 25.1395 49.6514 24.5424C50.4365 23.9453 50.8291 23.0029 50.8291 21.7152C50.8291 20.5313 50.4288 19.6538 49.6283 19.0827C48.8277 18.5115 47.6115 18.226 45.9796 18.226H42.2539ZM58.7103 28.569V5.79563H62.3898V25.3757H71.9196V28.569H58.7103ZM94.4726 17.1512C94.4726 20.8585 93.5566 23.7402 91.7245 25.7963C89.8924 27.8525 87.2983 28.8805 83.9421 28.8805C80.5449 28.8805 77.9354 27.8603 76.1136 25.8197C74.2918 23.7791 73.3809 20.8792 73.3809 17.12C73.3809 13.3608 74.2969 10.4739 76.129 8.45927C77.9611 6.44466 80.5757 5.43736 83.9729 5.43736C87.3189 5.43736 89.9053 6.46023 91.7322 8.506C93.5591 10.5518 94.4726 13.4335 94.4726 17.1512ZM77.2914 17.1512C77.2914 19.955 77.8507 22.0812 78.9694 23.5299C80.0882 24.9785 81.7457 25.7029 83.9421 25.7029C86.1283 25.7029 87.7781 24.9863 88.8918 23.5532C90.0054 22.1202 90.5621 19.9862 90.5621 17.1512C90.5621 14.3577 90.0105 12.2393 88.9072 10.7958C87.8038 9.35234 86.1591 8.63062 83.9729 8.63062C81.7663 8.63062 80.101 9.35234 78.9771 10.7958C77.8533 12.2393 77.2914 14.3577 77.2914 17.1512ZM108.204 8.66177C106.09 8.66177 104.427 9.41984 103.216 10.936C102.005 12.4521 101.399 14.5446 101.399 17.2135C101.399 20.0069 101.982 22.1202 103.147 23.5532C104.312 24.9863 105.997 25.7029 108.204 25.7029C109.159 25.7029 110.082 25.6068 110.975 25.4147C111.868 25.2226 112.797 24.9759 113.762 24.6748V27.868C111.996 28.543 109.995 28.8805 107.758 28.8805C104.463 28.8805 101.933 27.8706 100.168 25.8508C98.4023 23.831 97.5197 20.9415 97.5197 17.1823C97.5197 14.8146 97.9482 12.7429 98.8052 10.9671C99.6622 9.19138 100.902 7.83101 102.523 6.88601C104.145 5.94101 106.049 5.46852 108.235 5.46852C110.534 5.46852 112.658 5.95659 114.609 6.93274L113.285 10.0325C112.525 9.66907 111.722 9.34975 110.875 9.07456C110.028 8.79937 109.138 8.66177 108.204 8.66177ZM135.114 28.569H130.849L123.783 18.2571L121.612 20.0485V28.569H117.933V5.79563H121.612V16.6683C122.618 15.4221 123.619 14.2227 124.614 13.07L130.695 5.79563H134.883C130.952 10.4687 128.135 13.7969 126.431 15.7804L135.114 28.569ZM147.229 6.90159C144.406 6.90159 142.184 7.81542 140.563 9.64311C138.941 11.4708 138.13 13.9735 138.13 17.1512C138.13 20.4015 138.895 22.925 140.424 24.7215C141.953 26.5181 144.14 27.4163 146.983 27.4163C148.871 27.4163 150.606 27.1723 152.186 26.6842V28.0861C150.698 28.6157 148.84 28.8805 146.613 28.8805C143.452 28.8805 140.963 27.8473 139.146 25.7807C137.33 23.7142 136.421 20.8273 136.421 17.12C136.421 14.8042 136.855 12.7637 137.722 10.9983C138.59 9.23291 139.837 7.86995 141.463 6.90938C143.09 5.9488 144.981 5.46852 147.137 5.46852C149.333 5.46852 151.298 5.8839 153.033 6.71467L152.402 8.14774C150.76 7.31697 149.035 6.90159 147.229 6.90159ZM168.827 28.569H156.527V5.79563H168.827V7.25985H158.097V15.8739H168.227V17.3381H158.097V27.1048H168.827V28.569ZM174.815 18.6465V28.569H173.245V5.79563H178.602C181.394 5.79563 183.457 6.31745 184.791 7.3611C186.125 8.40476 186.793 9.97541 186.793 12.0731C186.793 13.5996 186.395 14.8873 185.599 15.9362C184.804 16.985 183.595 17.7379 181.974 18.1948L188.086 28.569H186.208L180.404 18.6465H174.815ZM174.815 17.2758H179.11C181.009 17.2758 182.482 16.8474 183.529 15.9907C184.576 15.134 185.099 13.8696 185.099 12.1977C185.099 10.4635 184.586 9.20177 183.56 8.41254C182.533 7.62331 180.86 7.2287 178.541 7.2287H174.815V17.2758ZM197.168 28.569H195.582V7.29101H188.269V5.79563H204.481V7.29101H197.168V28.569ZM219.567 22.6965C219.567 24.5969 218.877 26.1027 217.496 27.2138C216.116 28.325 214.281 28.8805 211.992 28.8805C209.242 28.8805 207.133 28.5742 205.665 27.9615V26.3727C207.287 27.0684 209.355 27.4163 211.869 27.4163C213.717 27.4163 215.182 26.9879 216.265 26.1312C217.347 25.2745 217.889 24.1504 217.889 22.7588C217.889 21.8969 217.709 21.183 217.35 20.617C216.991 20.0511 216.406 19.5344 215.595 19.0671C214.784 18.5998 213.594 18.0962 212.023 17.5562C209.724 16.7565 208.136 15.892 207.258 14.9626C206.381 14.0332 205.942 12.7948 205.942 11.2475C205.942 9.54445 206.601 8.15553 207.92 7.08072C209.239 6.00591 210.935 5.46852 213.008 5.46852C215.123 5.46852 217.109 5.87351 218.967 6.68351L218.397 8.05428C216.529 7.26504 214.743 6.87043 213.039 6.87043C211.377 6.87043 210.053 7.25985 209.067 8.0387C208.082 8.81754 207.589 9.87676 207.589 11.2164C207.589 12.0575 207.741 12.7481 208.044 13.2881C208.346 13.8281 208.841 14.3136 209.529 14.7445C210.217 15.1755 211.397 15.6921 213.07 16.2944C214.825 16.9071 216.144 17.5016 217.027 18.078C217.909 18.6543 218.553 19.3086 218.959 20.0407C219.364 20.7728 219.567 21.6581 219.567 22.6965Z" fill="white"/>
<path d="M20.533 22.5996C21.4036 22.5996 22.1094 21.8938 22.1094 21.0232C22.1094 20.1525 21.4036 19.4467 20.533 19.4467H2.31198C1.44131 19.4467 0.735493 20.1525 0.735493 21.0232C0.735493 21.8938 1.44131 22.5996 2.31198 22.5996H20.533Z" fill="#2AB27B"/>
<path d="M26.733 22.5996C27.6036 22.5996 28.3094 21.8938 28.3094 21.0232C28.3094 20.1525 27.6036 19.4467 26.733 19.4467H26.6958C25.8251 19.4467 25.1193 20.1525 25.1193 21.0232C25.1193 21.8938 25.8251 22.5996 26.6958 22.5996H26.733Z" fill="#2AB27B"/>
<path d="M17.5893 28.9799C18.46 28.9799 19.1658 28.2741 19.1658 27.4034C19.1658 26.5328 18.46 25.827 17.5893 25.827H17.5522C16.6815 25.827 15.9757 26.5328 15.9757 27.4034C15.9757 28.2741 16.6815 28.9799 17.5522 28.9799H17.5893Z" fill="#2AB27B"/>
<path d="M26.733 9.83907C27.6036 9.83907 28.3094 9.13326 28.3094 8.26259C28.3094 7.39192 27.6036 6.6861 26.733 6.6861H26.6958C25.8251 6.6861 25.1193 7.39192 25.1193 8.26259C25.1193 9.13326 25.8251 9.83907 26.6958 9.83907H26.733Z" fill="#2AB27B"/>
<path d="M2.45507 9.83907C3.32574 9.83907 4.03156 9.13326 4.03156 8.26259C4.03156 7.39192 3.32574 6.6861 2.45507 6.6861H2.4179C1.54723 6.6861 0.841413 7.39192 0.841413 8.26259C0.841413 9.13326 1.54723 9.83907 2.4179 9.83907H2.45507Z" fill="#2AB27B"/>
<path d="M14.7516 3.45879C15.6223 3.45879 16.3281 2.75298 16.3281 1.88231C16.3281 1.01164 15.6223 0.305824 14.7516 0.305824H14.7145C13.8438 0.305824 13.138 1.01164 13.138 1.88231C13.138 2.75298 13.8438 3.45879 14.7145 3.45879H14.7516Z" fill="#2AB27B"/>
<path d="M11.5987 16.2194C12.4694 16.2194 13.1752 15.5135 13.1752 14.6429C13.1752 13.7722 12.4694 13.0664 11.5987 13.0664H11.5615C10.6908 13.0664 9.98503 13.7722 9.98503 14.6429C9.98503 15.5135 10.6908 16.2194 11.5615 16.2194H11.5987Z" fill="#2AB27B"/>
<path d="M26.7664 3.45879C27.6371 3.45879 28.3429 2.75298 28.3429 1.88231C28.3429 1.01164 27.6371 0.305824 26.7664 0.305824L20.987 0.305824C20.1163 0.305824 19.4105 1.01164 19.4105 1.88231C19.4105 2.75298 20.1163 3.45879 20.987 3.45879L26.7664 3.45879Z" fill="#2AB27B"/>
<path d="M8.48101 3.45879C9.35168 3.45879 10.0575 2.75298 10.0575 1.88231C10.0575 1.01164 9.35168 0.305824 8.48101 0.305824L2.38257 0.305824C1.5119 0.305824 0.806087 1.01164 0.806087 1.88231C0.806087 2.75298 1.5119 3.45879 2.38257 3.45879L8.48101 3.45879Z" fill="#2AB27B"/>
<path d="M26.785 16.2194C27.6556 16.2194 28.3615 15.5135 28.3615 14.6429C28.3615 13.7722 27.6556 13.0664 26.785 13.0664H17.8154C16.9447 13.0664 16.2389 13.7722 16.2389 14.6429C16.2389 15.5135 16.9447 16.2194 17.8154 16.2194H26.785Z" fill="#2AB27B"/>
<path d="M5.30944 16.2194C6.18011 16.2194 6.88593 15.5135 6.88593 14.6429C6.88593 13.7722 6.18011 13.0664 5.30944 13.0664H2.40114C1.53048 13.0664 0.824658 13.7722 0.824658 14.6429C0.824658 15.5135 1.53048 16.2194 2.40114 16.2194H5.30944Z" fill="#2AB27B"/>
<path d="M26.7497 28.9799C27.6204 28.9799 28.3262 28.2741 28.3262 27.4034C28.3262 26.5328 27.6204 25.827 26.7497 25.827H23.8414C22.9707 25.827 22.2649 26.5328 22.2649 27.4034C22.2649 28.2741 22.9707 28.9799 23.8414 28.9799H26.7497Z" fill="#2AB27B"/>
<path d="M11.3354 28.9799C12.2061 28.9799 12.9119 28.2741 12.9119 27.4034C12.9119 26.5328 12.2061 25.827 11.3354 25.827H2.36587C1.49521 25.827 0.789391 26.5328 0.789391 27.4034C0.789391 28.2741 1.49521 28.9799 2.36587 28.9799H11.3354Z" fill="#2AB27B"/>
<path d="M20.4958 9.83907C21.3664 9.83907 22.0723 9.13326 22.0723 8.26259C22.0723 7.39192 21.3664 6.6861 20.4958 6.6861L8.65509 6.6861C7.78442 6.6861 7.0786 7.39192 7.0786 8.26259C7.0786 9.13326 7.78442 9.83907 8.65509 9.83907H20.4958Z" fill="#2AB27B"/>
<path fill-rule="evenodd" clip-rule="evenodd" d="M4.39605 48.8633H3.24419V42.7338H1.17181V41.7342H6.46843V42.7338H4.39605V48.8633ZM12.0552 48.8633H10.9178V45.5474C10.9178 45.1313 10.835 44.8209 10.6696 44.6161C10.5041 44.4113 10.2414 44.3089 9.88159 44.3089C9.40606 44.3089 9.05665 44.4527 8.83335 44.7404C8.61004 45.0281 8.49839 45.5101 8.49839 46.1862V48.8633H7.36581V41.2758H8.49839V43.2019C8.49839 43.5108 8.47912 43.8407 8.44056 44.1918H8.51285C8.66708 43.9318 8.88154 43.7302 9.15625 43.5872C9.43096 43.4441 9.75146 43.3726 10.1177 43.3726C11.4094 43.3726 12.0552 44.0309 12.0552 45.3475V48.8633ZM15.8973 48.9609C15.0683 48.9609 14.4201 48.7162 13.9526 48.227C13.4851 47.7377 13.2514 47.064 13.2514 46.2057C13.2514 45.3248 13.4682 44.6323 13.902 44.1284C14.3358 43.6246 14.9318 43.3726 15.69 43.3726C16.3937 43.3726 16.9495 43.5888 17.3576 44.0212C17.7656 44.4535 17.9696 45.0484 17.9696 45.8059V46.4252H14.4177C14.4337 46.9486 14.5735 47.3509 14.837 47.6321C15.1004 47.9133 15.4715 48.0539 15.9503 48.0539C16.2652 48.0539 16.5583 48.0238 16.8298 47.9636C17.1013 47.9035 17.3929 47.8035 17.7046 47.6638V48.5951C17.4283 48.7284 17.1487 48.8227 16.866 48.878C16.5832 48.9332 16.2603 48.9609 15.8973 48.9609ZM15.69 44.2406C15.3302 44.2406 15.0418 44.356 14.8249 44.5868C14.6081 44.8176 14.4787 45.1541 14.437 45.5962H16.8563C16.8499 45.1508 16.7439 44.8136 16.5383 44.5844C16.3326 44.3552 16.0499 44.2406 15.69 44.2406ZM28.0732 45.289C28.0732 46.4496 27.7864 47.3517 27.2129 47.9953C26.6394 48.639 25.8273 48.9609 24.7767 48.9609C23.7132 48.9609 22.8963 48.6415 22.326 48.0027C21.7557 47.3639 21.4705 46.4561 21.4705 45.2792C21.4705 44.1024 21.7573 43.1987 22.3308 42.568C22.9043 41.9374 23.7228 41.622 24.7863 41.622C25.8338 41.622 26.6434 41.9422 27.2153 42.5827C27.7873 43.2231 28.0732 44.1252 28.0732 45.289ZM22.6947 45.289C22.6947 46.1667 22.8698 46.8323 23.22 47.2858C23.5702 47.7393 24.0891 47.9661 24.7767 47.9661C25.4611 47.9661 25.9775 47.7418 26.3261 47.2932C26.6748 46.8445 26.8491 46.1765 26.8491 45.289C26.8491 44.4145 26.6764 43.7513 26.331 43.2995C25.9856 42.8476 25.4707 42.6217 24.7863 42.6217C24.0955 42.6217 23.5742 42.8476 23.2224 43.2995C22.8706 43.7513 22.6947 44.4145 22.6947 45.289ZM32.1081 48.9609C31.4333 48.9609 30.9096 48.7154 30.5369 48.2245H30.4695C30.5144 48.6797 30.5369 48.956 30.5369 49.0535V51.2625H29.4043V43.4701H30.32C30.3458 43.5709 30.3988 43.8115 30.4791 44.1918H30.5369C30.8904 43.6457 31.4205 43.3726 32.1274 43.3726C32.7924 43.3726 33.3105 43.6164 33.6816 44.1041C34.0527 44.5917 34.2383 45.276 34.2383 46.157C34.2383 47.038 34.0495 47.7255 33.672 48.2197C33.2945 48.7138 32.7732 48.9609 32.1081 48.9609ZM31.8334 44.3089C31.3835 44.3089 31.055 44.4421 30.8478 44.7087C30.6405 44.9753 30.5369 45.4012 30.5369 45.9863V46.157C30.5369 46.8137 30.6397 47.2891 30.8454 47.5833C31.051 47.8775 31.3868 48.0246 31.8526 48.0246C32.2446 48.0246 32.5466 47.8621 32.7587 47.537C32.9708 47.2119 33.0768 46.7486 33.0768 46.1472C33.0768 45.5426 32.9716 45.085 32.7611 44.7745C32.5507 44.4641 32.2414 44.3089 31.8334 44.3089ZM37.8201 48.9609C36.9912 48.9609 36.343 48.7162 35.8755 48.227C35.408 47.7377 35.1742 47.064 35.1742 46.2057C35.1742 45.3248 35.3911 44.6323 35.8249 44.1284C36.2586 43.6246 36.8546 43.3726 37.6129 43.3726C38.3165 43.3726 38.8724 43.5888 39.2804 44.0212C39.6885 44.4535 39.8925 45.0484 39.8925 45.8059V46.4252H36.3405C36.3566 46.9486 36.4964 47.3509 36.7598 47.6321C37.0233 47.9133 37.3944 48.0539 37.8731 48.0539C38.188 48.0539 38.4812 48.0238 38.7527 47.9636C39.0242 47.9035 39.3158 47.8035 39.6274 47.6638V48.5951C39.3511 48.7284 39.0716 48.8227 38.7888 48.878C38.5061 48.9332 38.1832 48.9609 37.8201 48.9609ZM37.6129 44.2406C37.253 44.2406 36.9647 44.356 36.7478 44.5868C36.5309 44.8176 36.4016 45.1541 36.3598 45.5962H38.7792C38.7728 45.1508 38.6668 44.8136 38.4611 44.5844C38.2555 44.3552 37.9727 44.2406 37.6129 44.2406ZM45.807 48.8633H44.6696V45.5474C44.6696 45.1313 44.5868 44.8209 44.4214 44.6161C44.2559 44.4113 43.9932 44.3089 43.6334 44.3089C43.1547 44.3089 42.8044 44.4519 42.5827 44.738C42.361 45.0241 42.2502 45.5036 42.2502 46.1765V48.8633H41.1176V43.4701H42.0044L42.1634 44.1772H42.2213C42.3819 43.9204 42.6101 43.7221 42.9056 43.5823C43.2012 43.4425 43.529 43.3726 43.8888 43.3726C45.1676 43.3726 45.807 44.0309 45.807 45.3475V48.8633ZM54.0068 46.9274C54.0068 47.5614 53.7803 48.0587 53.3273 48.4196C52.8743 48.7804 52.2493 48.9609 51.4525 48.9609C50.6557 48.9609 50.0035 48.8357 49.4958 48.5854V47.4833C49.8171 47.6361 50.1585 47.7564 50.5199 47.8442C50.8814 47.932 51.218 47.9758 51.5296 47.9758C51.9859 47.9758 52.3224 47.8881 52.5393 47.7125C52.7562 47.537 52.8646 47.3013 52.8646 47.0055C52.8646 46.7389 52.765 46.513 52.5658 46.3277C52.3666 46.1424 51.9554 45.9229 51.332 45.6693C50.6894 45.406 50.2364 45.1053 49.9729 44.7672C49.7095 44.4291 49.5777 44.0228 49.5777 43.5482C49.5777 42.9532 49.7866 42.4851 50.2043 42.1438C50.622 41.8024 51.1826 41.6318 51.8863 41.6318C52.561 41.6318 53.2325 41.7813 53.9008 42.0804L53.5345 43.0313C52.908 42.7647 52.3489 42.6314 51.8574 42.6314C51.4846 42.6314 51.2019 42.7135 51.0091 42.8777C50.8163 43.0418 50.72 43.2588 50.72 43.5287C50.72 43.714 50.7585 43.8724 50.8356 44.0041C50.9127 44.1358 51.0396 44.2601 51.2164 44.3771C51.3931 44.4942 51.7112 44.6486 52.1706 44.8404C52.6879 45.0582 53.067 45.2614 53.308 45.4499C53.549 45.6385 53.7257 45.8514 53.8382 46.0887C53.9506 46.326 54.0068 46.6056 54.0068 46.9274ZM57.1742 48.0344C57.4505 48.0344 57.7268 47.9905 58.0032 47.9027V48.7658C57.8779 48.8211 57.7164 48.8674 57.5188 48.9048C57.3212 48.9422 57.1164 48.9609 56.9043 48.9609C55.8312 48.9609 55.2946 48.3887 55.2946 47.2444V44.3381H54.5669V43.831L55.3476 43.4116L55.7332 42.2706H56.432V43.4701H57.9502V44.3381H56.432V47.2249C56.432 47.5012 56.5003 47.7052 56.6368 47.8369C56.7734 47.9685 56.9525 48.0344 57.1742 48.0344ZM62.3417 48.8633L62.1151 48.1124H62.0766C61.8195 48.4407 61.5609 48.6642 61.3007 48.7829C61.0404 48.9015 60.7063 48.9609 60.2982 48.9609C59.7745 48.9609 59.3656 48.8178 59.0716 48.5317C58.7777 48.2457 58.6307 47.8409 58.6307 47.3175C58.6307 46.7616 58.8347 46.3423 59.2427 46.0595C59.6508 45.7766 60.2725 45.6222 61.1079 45.5962L62.0284 45.5669V45.2792C62.0284 44.9347 61.9489 44.677 61.7898 44.5064C61.6308 44.3357 61.3842 44.2503 61.05 44.2503C60.7769 44.2503 60.5151 44.291 60.2645 44.3723C60.0139 44.4535 59.7729 44.5494 59.5415 44.66L59.1753 43.8407C59.4644 43.6879 59.7809 43.5717 60.1247 43.4921C60.4685 43.4124 60.793 43.3726 61.0982 43.3726C61.7762 43.3726 62.2878 43.5222 62.6332 43.8212C62.9786 44.1203 63.1513 44.5901 63.1513 45.2305V48.8633H62.3417ZM60.6548 48.0831C61.0661 48.0831 61.3962 47.9669 61.6452 47.7345C61.8943 47.502 62.0188 47.1761 62.0188 46.7568V46.2886L61.3344 46.3179C60.801 46.3374 60.4131 46.4276 60.1705 46.5885C59.9279 46.7495 59.8066 46.9957 59.8066 47.3273C59.8066 47.5679 59.8773 47.754 60.0187 47.8856C60.16 48.0173 60.3721 48.0831 60.6548 48.0831ZM69.3598 48.8633H68.2224V45.5474C68.2224 45.1313 68.1397 44.8209 67.9742 44.6161C67.8087 44.4113 67.5461 44.3089 67.1862 44.3089C66.7075 44.3089 66.3573 44.4519 66.1356 44.738C65.9139 45.0241 65.803 45.5036 65.803 46.1765V48.8633H64.6704V43.4701H65.5572L65.7163 44.1772H65.7741C65.9347 43.9204 66.1629 43.7221 66.4585 43.5823C66.7541 43.4425 67.0818 43.3726 67.4416 43.3726C68.7204 43.3726 69.3598 44.0309 69.3598 45.3475V48.8633ZM72.6717 48.9609C72.0067 48.9609 71.4878 48.717 71.1151 48.2294C70.7423 47.7418 70.556 47.0575 70.556 46.1765C70.556 45.2922 70.7448 44.6039 71.1223 44.1114C71.4998 43.6189 72.0227 43.3726 72.691 43.3726C73.3915 43.3726 73.9248 43.6343 74.2911 44.1577H74.3489C74.2943 43.7708 74.267 43.4653 74.267 43.241V41.2758H75.4044V48.8633H74.5176L74.32 48.1563H74.267C73.9039 48.6927 73.3722 48.9609 72.6717 48.9609ZM72.9754 48.0344C73.4413 48.0344 73.7802 47.9019 73.9923 47.6369C74.2043 47.372 74.3136 46.9421 74.32 46.3472V46.1862C74.32 45.5068 74.2108 45.0241 73.9923 44.738C73.7738 44.4519 73.4316 44.3089 72.9657 44.3089C72.5673 44.3089 72.2605 44.4722 72.0452 44.7989C71.8299 45.1256 71.7223 45.5913 71.7223 46.196C71.7223 46.7942 71.8267 47.2501 72.0356 47.5638C72.2444 47.8775 72.5577 48.0344 72.9754 48.0344ZM80.2971 48.8633L80.0706 48.1124H80.0321C79.775 48.4407 79.5164 48.6642 79.2561 48.7829C78.9959 48.9015 78.6617 48.9609 78.2537 48.9609C77.7299 48.9609 77.3211 48.8178 77.0271 48.5317C76.7331 48.2457 76.5861 47.8409 76.5861 47.3175C76.5861 46.7616 76.7901 46.3423 77.1982 46.0595C77.6063 45.7766 78.228 45.6222 79.0633 45.5962L79.9839 45.5669V45.2792C79.9839 44.9347 79.9043 44.677 79.7453 44.5064C79.5863 44.3357 79.3397 44.2503 79.0055 44.2503C78.7324 44.2503 78.4705 44.291 78.2199 44.3723C77.9693 44.4535 77.7283 44.5494 77.497 44.66L77.1307 43.8407C77.4199 43.6879 77.7364 43.5717 78.0802 43.4921C78.424 43.4124 78.7485 43.3726 79.0537 43.3726C79.7316 43.3726 80.2433 43.5222 80.5887 43.8212C80.9341 44.1203 81.1068 44.5901 81.1068 45.2305V48.8633H80.2971ZM78.6103 48.0831C79.0216 48.0831 79.3517 47.9669 79.6007 47.7345C79.8497 47.502 79.9742 47.1761 79.9742 46.7568V46.2886L79.2899 46.3179C78.7565 46.3374 78.3685 46.4276 78.126 46.5885C77.8834 46.7495 77.7621 46.9957 77.7621 47.3273C77.7621 47.5679 77.8328 47.754 77.9741 47.8856C78.1155 48.0173 78.3276 48.0831 78.6103 48.0831ZM85.3296 43.3726C85.5578 43.3726 85.7457 43.3889 85.8935 43.4214L85.7827 44.4893C85.622 44.4503 85.4549 44.4308 85.2814 44.4308C84.8284 44.4308 84.4613 44.5803 84.1802 44.8794C83.899 45.1785 83.7585 45.5669 83.7585 46.0448V48.8633H82.6259V43.4701H83.5127L83.6621 44.421H83.7199C83.8966 44.0992 84.1272 43.844 84.4115 43.6554C84.6959 43.4669 85.0019 43.3726 85.3296 43.3726ZM88.4199 48.9609C87.7548 48.9609 87.2359 48.717 86.8632 48.2294C86.4905 47.7418 86.3041 47.0575 86.3041 46.1765C86.3041 45.2922 86.4929 44.6039 86.8704 44.1114C87.2479 43.6189 87.7709 43.3726 88.4392 43.3726C89.1396 43.3726 89.673 43.6343 90.0392 44.1577H90.0971C90.0424 43.7708 90.0151 43.4653 90.0151 43.241V41.2758H91.1525V48.8633H90.2657L90.0682 48.1563H90.0151C89.6521 48.6927 89.1203 48.9609 88.4199 48.9609ZM88.7235 48.0344C89.1894 48.0344 89.5284 47.9019 89.7404 47.6369C89.9525 47.372 90.0617 46.9421 90.0682 46.3472V46.1862C90.0682 45.5068 89.9589 45.0241 89.7404 44.738C89.5219 44.4519 89.1798 44.3089 88.7139 44.3089C88.3155 44.3089 88.0086 44.4722 87.7934 44.7989C87.5781 45.1256 87.4705 45.5913 87.4705 46.196C87.4705 46.7942 87.5749 47.2501 87.7837 47.5638C87.9926 47.8775 88.3058 48.0344 88.7235 48.0344ZM96.4752 48.8633H95.333V41.7342H99.309V42.7192H96.4752V44.9477H99.1307V45.9375H96.4752V48.8633ZM105.132 46.157C105.132 47.038 104.909 47.7255 104.462 48.2197C104.015 48.7138 103.394 48.9609 102.597 48.9609C102.099 48.9609 101.659 48.8471 101.276 48.6195C100.894 48.392 100.6 48.0652 100.394 47.6394C100.189 47.2135 100.086 46.7194 100.086 46.157C100.086 45.2825 100.308 44.5998 100.751 44.1089C101.194 43.618 101.819 43.3726 102.626 43.3726C103.397 43.3726 104.007 43.6237 104.457 44.126C104.907 44.6283 105.132 45.3052 105.132 46.157ZM101.252 46.157C101.252 47.4021 101.707 48.0246 102.616 48.0246C103.516 48.0246 103.966 47.4021 103.966 46.157C103.966 44.9249 103.513 44.3089 102.607 44.3089C102.131 44.3089 101.786 44.4682 101.573 44.7867C101.359 45.1053 101.252 45.5621 101.252 46.157ZM109.075 43.3726C109.303 43.3726 109.491 43.3889 109.639 43.4214L109.528 44.4893C109.368 44.4503 109.201 44.4308 109.027 44.4308C108.574 44.4308 108.207 44.5803 107.926 44.8794C107.645 45.1785 107.504 45.5669 107.504 46.0448V48.8633H106.371V43.4701H107.258L107.408 44.421H107.466C107.642 44.0992 107.873 43.844 108.157 43.6554C108.441 43.4669 108.748 43.3726 109.075 43.3726ZM113.188 41.7342H115.28C116.25 41.7342 116.951 41.8772 117.384 42.1633C117.816 42.4494 118.032 42.9012 118.032 43.5189C118.032 43.935 117.926 44.2812 117.714 44.5576C117.502 44.8339 117.196 45.0078 116.798 45.0793V45.1281C117.293 45.2224 117.657 45.4085 117.89 45.6864C118.123 45.9644 118.239 46.3407 118.239 46.8153C118.239 47.4557 118.018 47.9571 117.576 48.3196C117.135 48.6821 116.52 48.8633 115.733 48.8633H113.188V41.7342ZM114.34 44.6795H115.449C115.93 44.6795 116.282 44.6023 116.504 44.4478C116.726 44.2934 116.837 44.0309 116.837 43.6603C116.837 43.3255 116.717 43.0833 116.477 42.9337C116.238 42.7842 115.858 42.7094 115.338 42.7094H114.34V44.6795ZM114.34 45.6255V47.8832H115.564C116.046 47.8832 116.41 47.7897 116.656 47.6028C116.902 47.4159 117.024 47.1209 117.024 46.7178C117.024 46.3472 116.899 46.0725 116.649 45.8937C116.398 45.7149 116.017 45.6255 115.506 45.6255H114.34ZM120.655 48.8633H119.522V41.2758H120.655V48.8633ZM126.94 46.157C126.94 47.038 126.717 47.7255 126.27 48.2197C125.824 48.7138 125.202 48.9609 124.405 48.9609C123.907 48.9609 123.467 48.8471 123.084 48.6195C122.702 48.392 122.408 48.0652 122.203 47.6394C121.997 47.2135 121.894 46.7194 121.894 46.157C121.894 45.2825 122.116 44.5998 122.559 44.1089C123.003 43.618 123.627 43.3726 124.434 43.3726C125.205 43.3726 125.816 43.6237 126.265 44.126C126.715 44.6283 126.94 45.3052 126.94 46.157ZM123.06 46.157C123.06 47.4021 123.515 48.0246 124.424 48.0246C125.324 48.0246 125.774 47.4021 125.774 46.157C125.774 44.9249 125.321 44.3089 124.415 44.3089C123.939 44.3089 123.595 44.4682 123.381 44.7867C123.167 45.1053 123.06 45.5621 123.06 46.157ZM130.329 48.9609C129.523 48.9609 128.91 48.7227 128.491 48.2465C128.071 47.7702 127.862 47.0867 127.862 46.196C127.862 45.289 128.081 44.5917 128.519 44.1041C128.958 43.6164 129.592 43.3726 130.421 43.3726C130.983 43.3726 131.489 43.4783 131.939 43.6896L131.597 44.6112C131.118 44.4226 130.723 44.3284 130.411 44.3284C129.489 44.3284 129.028 44.9476 129.028 46.1862C129.028 46.7909 129.143 47.2452 129.372 47.5492C129.602 47.8531 129.939 48.0051 130.382 48.0051C130.887 48.0051 131.364 47.8783 131.814 47.6247V48.6244C131.611 48.7447 131.395 48.8308 131.165 48.8828C130.936 48.9348 130.657 48.9609 130.329 48.9609ZM134.099 46.0156L134.74 45.2061L136.35 43.4701H137.656L135.511 45.7864L137.791 48.8633H136.46L134.75 46.4983L134.128 47.0152V48.8633H133.005V41.2758H134.128V44.9769L134.07 46.0156H134.099ZM140.539 48.9609C139.732 48.9609 139.119 48.7227 138.7 48.2465C138.281 47.7702 138.071 47.0867 138.071 46.196C138.071 45.289 138.29 44.5917 138.729 44.1041C139.168 43.6164 139.801 43.3726 140.63 43.3726C141.193 43.3726 141.699 43.4783 142.148 43.6896L141.806 44.6112C141.328 44.4226 140.932 44.3284 140.621 44.3284C139.699 44.3284 139.237 44.9476 139.237 46.1862C139.237 46.7909 139.352 47.2452 139.582 47.5492C139.812 47.8531 140.148 48.0051 140.592 48.0051C141.096 48.0051 141.573 47.8783 142.023 47.6247V48.6244C141.821 48.7447 141.605 48.8308 141.375 48.8828C141.145 48.9348 140.866 48.9609 140.539 48.9609ZM147.904 48.8633H146.766V45.5474C146.766 45.1313 146.684 44.8209 146.518 44.6161C146.353 44.4113 146.09 44.3089 145.73 44.3089C145.255 44.3089 144.905 44.4527 144.682 44.7404C144.459 45.0281 144.347 45.5101 144.347 46.1862V48.8633H143.215V41.2758H144.347V43.2019C144.347 43.5108 144.328 43.8407 144.289 44.1918H144.362C144.516 43.9318 144.73 43.7302 145.005 43.5872C145.28 43.4441 145.6 43.3726 145.966 43.3726C147.258 43.3726 147.904 44.0309 147.904 45.3475V48.8633ZM152.753 48.8633L152.527 48.1124H152.488C152.231 48.4407 151.972 48.6642 151.712 48.7829C151.452 48.9015 151.118 48.9609 150.71 48.9609C150.186 48.9609 149.777 48.8178 149.483 48.5317C149.189 48.2457 149.042 47.8409 149.042 47.3175C149.042 46.7616 149.246 46.3423 149.654 46.0595C150.062 45.7766 150.684 45.6222 151.519 45.5962L152.44 45.5669V45.2792C152.44 44.9347 152.36 44.677 152.201 44.5064C152.042 44.3357 151.796 44.2503 151.462 44.2503C151.189 44.2503 150.927 44.291 150.676 44.3723C150.425 44.4535 150.184 44.5494 149.953 44.66L149.587 43.8407C149.876 43.6879 150.192 43.5717 150.536 43.4921C150.88 43.4124 151.205 43.3726 151.51 43.3726C152.188 43.3726 152.699 43.5222 153.045 43.8212C153.39 44.1203 153.563 44.5901 153.563 45.2305V48.8633H152.753ZM151.066 48.0831C151.478 48.0831 151.808 47.9669 152.057 47.7345C152.306 47.502 152.43 47.1761 152.43 46.7568V46.2886L151.746 46.3179C151.213 46.3374 150.825 46.4276 150.582 46.5885C150.339 46.7495 150.218 46.9957 150.218 47.3273C150.218 47.5679 150.289 47.754 150.43 47.8856C150.572 48.0173 150.784 48.0831 151.066 48.0831ZM156.215 48.8633H155.082V43.4701H156.215V48.8633ZM155.015 42.0414C155.015 41.8366 155.07 41.6789 155.181 41.5684C155.292 41.4579 155.45 41.4026 155.656 41.4026C155.855 41.4026 156.01 41.4579 156.121 41.5684C156.231 41.6789 156.287 41.8366 156.287 42.0414C156.287 42.2364 156.231 42.39 156.121 42.5022C156.01 42.6143 155.855 42.6704 155.656 42.6704C155.45 42.6704 155.292 42.6143 155.181 42.5022C155.07 42.39 155.015 42.2364 155.015 42.0414ZM162.462 48.8633H161.324V45.5474C161.324 45.1313 161.241 44.8209 161.076 44.6161C160.911 44.4113 160.648 44.3089 160.288 44.3089C159.809 44.3089 159.459 44.4519 159.237 44.738C159.016 45.0241 158.905 45.5036 158.905 46.1765V48.8633H157.772V43.4701H158.659L158.818 44.1772H158.876C159.037 43.9204 159.265 43.7221 159.56 43.5823C159.856 43.4425 160.184 43.3726 160.543 43.3726C161.822 43.3726 162.462 44.0309 162.462 45.3475V48.8633ZM169.596 42.6314C168.934 42.6314 168.414 42.8687 168.035 43.3434C167.656 43.818 167.466 44.473 167.466 45.3085C167.466 46.183 167.648 46.8445 168.013 47.2932C168.378 47.7418 168.906 47.9661 169.596 47.9661C169.895 47.9661 170.184 47.936 170.464 47.8759C170.743 47.8157 171.034 47.7385 171.336 47.6443V48.6439C170.784 48.8552 170.157 48.9609 169.457 48.9609C168.425 48.9609 167.633 48.6447 167.081 48.0124C166.528 47.3801 166.252 46.4756 166.252 45.2988C166.252 44.5576 166.386 43.909 166.654 43.3531C166.922 42.7972 167.31 42.3713 167.818 42.0755C168.326 41.7797 168.922 41.6318 169.606 41.6318C170.326 41.6318 170.991 41.7846 171.601 42.0901L171.187 43.0605C170.949 42.9467 170.698 42.8468 170.433 42.7606C170.167 42.6745 169.889 42.6314 169.596 42.6314ZM175.376 43.3726C175.604 43.3726 175.792 43.3889 175.94 43.4214L175.829 44.4893C175.668 44.4503 175.501 44.4308 175.328 44.4308C174.875 44.4308 174.508 44.5803 174.226 44.8794C173.945 45.1785 173.805 45.5669 173.805 46.0448V48.8633H172.672V43.4701H173.559L173.708 44.421H173.766C173.943 44.0992 174.173 43.844 174.458 43.6554C174.742 43.4669 175.048 43.3726 175.376 43.3726ZM178.996 48.9609C178.167 48.9609 177.519 48.7162 177.052 48.227C176.584 47.7377 176.35 47.064 176.35 46.2057C176.35 45.3248 176.567 44.6323 177.001 44.1284C177.435 43.6246 178.031 43.3726 178.789 43.3726C179.493 43.3726 180.049 43.5888 180.457 44.0212C180.865 44.4535 181.069 45.0484 181.069 45.8059V46.4252H177.517C177.533 46.9486 177.673 47.3509 177.936 47.6321C178.199 47.9133 178.571 48.0539 179.049 48.0539C179.364 48.0539 179.657 48.0238 179.929 47.9636C180.2 47.9035 180.492 47.8035 180.804 47.6638V48.5951C180.527 48.7284 180.248 48.8227 179.965 48.878C179.682 48.9332 179.359 48.9609 178.996 48.9609ZM178.789 44.2406C178.429 44.2406 178.141 44.356 177.924 44.5868C177.707 44.8176 177.578 45.1541 177.536 45.5962H179.955C179.949 45.1508 179.843 44.8136 179.637 44.5844C179.432 44.3552 179.149 44.2406 178.789 44.2406ZM184.091 48.9609C183.426 48.9609 182.907 48.717 182.535 48.2294C182.162 47.7418 181.976 47.0575 181.976 46.1765C181.976 45.2922 182.164 44.6039 182.542 44.1114C182.92 43.6189 183.442 43.3726 184.111 43.3726C184.811 43.3726 185.345 43.6343 185.711 44.1577H185.769C185.714 43.7708 185.687 43.4653 185.687 43.241V41.2758H186.824V48.8633H185.937L185.74 48.1563H185.687C185.324 48.6927 184.792 48.9609 184.091 48.9609ZM184.395 48.0344C184.861 48.0344 185.2 47.9019 185.412 47.6369C185.624 47.372 185.733 46.9421 185.74 46.3472V46.1862C185.74 45.5068 185.63 45.0241 185.412 44.738C185.193 44.4519 184.851 44.3089 184.385 44.3089C183.987 44.3089 183.68 44.4722 183.465 44.7989C183.25 45.1256 183.142 45.5913 183.142 46.196C183.142 46.7942 183.246 47.2501 183.455 47.5638C183.664 47.8775 183.977 48.0344 184.395 48.0344ZM190.71 48.9609C189.881 48.9609 189.232 48.7162 188.765 48.227C188.297 47.7377 188.064 47.064 188.064 46.2057C188.064 45.3248 188.281 44.6323 188.714 44.1284C189.148 43.6246 189.744 43.3726 190.502 43.3726C191.206 43.3726 191.762 43.5888 192.17 44.0212C192.578 44.4535 192.782 45.0484 192.782 45.8059V46.4252H189.23C189.246 46.9486 189.386 47.3509 189.649 47.6321C189.913 47.9133 190.284 48.0539 190.763 48.0539C191.077 48.0539 191.371 48.0238 191.642 47.9636C191.914 47.9035 192.205 47.8035 192.517 47.6638V48.5951C192.241 48.7284 191.961 48.8227 191.678 48.878C191.396 48.9332 191.073 48.9609 190.71 48.9609ZM190.502 44.2406C190.142 44.2406 189.854 44.356 189.637 44.5868C189.42 44.8176 189.291 45.1541 189.249 45.5962H191.669C191.662 45.1508 191.556 44.8136 191.351 44.5844C191.145 44.3552 190.862 44.2406 190.502 44.2406ZM198.696 48.8633H197.559V45.5474C197.559 45.1313 197.476 44.8209 197.311 44.6161C197.145 44.4113 196.883 44.3089 196.523 44.3089C196.044 44.3089 195.694 44.4519 195.472 44.738C195.25 45.0241 195.14 45.5036 195.14 46.1765V48.8633H194.007V43.4701H194.894L195.053 44.1772H195.111C195.271 43.9204 195.499 43.7221 195.795 43.5823C196.091 43.4425 196.418 43.3726 196.778 43.3726C198.057 43.3726 198.696 44.0309 198.696 45.3475V48.8633ZM202.196 48.0344C202.473 48.0344 202.749 47.9905 203.025 47.9027V48.7658C202.9 48.8211 202.739 48.8674 202.541 48.9048C202.343 48.9422 202.138 48.9609 201.926 48.9609C200.853 48.9609 200.317 48.3887 200.317 47.2444V44.3381H199.589V43.831L200.37 43.4116L200.755 42.2706H201.454V43.4701H202.972V44.3381H201.454V47.2249C201.454 47.5012 201.522 47.7052 201.659 47.8369C201.796 47.9685 201.975 48.0344 202.196 48.0344ZM205.161 48.8633H204.029V43.4701H205.161V48.8633ZM203.961 42.0414C203.961 41.8366 204.017 41.6789 204.127 41.5684C204.238 41.4579 204.397 41.4026 204.602 41.4026C204.801 41.4026 204.956 41.4579 205.067 41.5684C205.178 41.6789 205.234 41.8366 205.234 42.0414C205.234 42.2364 205.178 42.39 205.067 42.5022C204.956 42.6143 204.801 42.6704 204.602 42.6704C204.397 42.6704 204.238 42.6143 204.127 42.5022C204.017 42.39 203.961 42.2364 203.961 42.0414ZM210.054 48.8633L209.827 48.1124H209.789C209.532 48.4407 209.273 48.6642 209.013 48.7829C208.753 48.9015 208.419 48.9609 208.011 48.9609C207.487 48.9609 207.078 48.8178 206.784 48.5317C206.49 48.2457 206.343 47.8409 206.343 47.3175C206.343 46.7616 206.547 46.3423 206.955 46.0595C207.363 45.7766 207.985 45.6222 208.82 45.5962L209.741 45.5669V45.2792C209.741 44.9347 209.661 44.677 209.502 44.5064C209.343 44.3357 209.097 44.2503 208.762 44.2503C208.489 44.2503 208.227 44.291 207.977 44.3723C207.726 44.4535 207.485 44.5494 207.254 44.66L206.888 43.8407C207.177 43.6879 207.493 43.5717 207.837 43.4921C208.181 43.4124 208.505 43.3726 208.811 43.3726C209.489 43.3726 210 43.5222 210.346 43.8212C210.691 44.1203 210.864 44.5901 210.864 45.2305V48.8633H210.054ZM208.367 48.0831C208.778 48.0831 209.109 47.9669 209.358 47.7345C209.607 47.502 209.731 47.1761 209.731 46.7568V46.2886L209.047 46.3179C208.513 46.3374 208.125 46.4276 207.883 46.5885C207.64 46.7495 207.519 46.9957 207.519 47.3273C207.519 47.5679 207.59 47.754 207.731 47.8856C207.872 48.0173 208.084 48.0831 208.367 48.0831ZM213.515 48.8633H212.383V41.2758H213.515V48.8633ZM218.654 47.3273C218.654 47.8539 218.464 48.2579 218.085 48.5391C217.706 48.8203 217.163 48.9609 216.456 48.9609C215.746 48.9609 215.176 48.852 214.745 48.6341V47.6443C215.372 47.9368 215.955 48.0831 216.495 48.0831C217.192 48.0831 217.541 47.8702 217.541 47.4443C217.541 47.3078 217.502 47.194 217.425 47.103C217.348 47.012 217.221 46.9177 217.044 46.8202C216.867 46.7226 216.622 46.6121 216.307 46.4886C215.693 46.248 215.278 46.0074 215.061 45.7669C214.844 45.5263 214.736 45.2142 214.736 44.8306C214.736 44.369 214.92 44.0106 215.287 43.7554C215.655 43.5002 216.156 43.3726 216.789 43.3726C217.415 43.3726 218.008 43.501 218.567 43.7578L218.201 44.6209C217.626 44.3804 217.142 44.2601 216.75 44.2601C216.153 44.2601 215.854 44.4324 215.854 44.777C215.854 44.946 215.932 45.0891 216.088 45.2061C216.243 45.3231 216.583 45.484 217.107 45.6889C217.547 45.8612 217.867 46.0188 218.066 46.1619C218.265 46.3049 218.413 46.4699 218.509 46.6568C218.606 46.8437 218.654 47.0672 218.654 47.3273Z" fill="white"/>
</g>
</g>
</g>
<defs>
<clipPath id="clip0_2_5">
<rect width="220" height="51.36" fill="white"/>
</clipPath>
<clipPath id="clip1_2_5">
<rect width="220" height="51.36" fill="white"/>
</clipPath>
<clipPath id="clip2_2_5">
<rect width="219.992" height="51.36" fill="white" transform="translate(0.00402832)"/>
</clipPath>
</defs>
</svg>
