<svg width="14" height="12" viewBox="0 0 14 12" fill="none" xmlns="http://www.w3.org/2000/svg">
<g clip-path="url(#clip0_2_166)">
<g clip-path="url(#clip1_2_166)">
<path fill-rule="evenodd" clip-rule="evenodd" d="M13.2183 1.84676C12.7283 2.06842 12.2033 2.20842 11.655 2.27842C12.215 1.94009 12.6467 1.39176 12.8567 0.761758C12.3317 1.07676 11.7483 1.29842 11.13 1.42676C10.64 0.890091 9.92833 0.551758 9.14667 0.551758C7.65333 0.551758 6.44 1.78842 6.44 3.30509C6.44 3.51509 6.46333 3.72509 6.51 3.93509C4.25833 3.81842 2.25167 2.72176 0.921667 1.05342C0.688333 1.46176 0.548333 1.94009 0.548333 2.44176C0.548333 3.39842 1.02667 4.23842 1.76167 4.72842C1.31833 4.71676 0.898333 4.58842 0.525 4.39009C0.525 4.40176 0.525 4.40176 0.525 4.41342C0.525 5.75509 1.45833 6.86342 2.70667 7.12009C2.47333 7.17842 2.24 7.21342 1.995 7.21342C1.82 7.21342 1.645 7.19009 1.48167 7.16676C1.82 8.25176 2.82333 9.04509 4.01333 9.06842C3.08 9.80342 1.91333 10.2468 0.641667 10.2468C0.431667 10.2468 0.21 10.2351 0 10.2118C1.20167 10.9934 2.625 11.4484 4.15333 11.4484C9.14667 11.4484 11.8767 7.26009 11.8767 3.62009C11.8767 3.50342 11.865 3.38676 11.865 3.27009C12.39 2.88509 12.8567 2.39509 13.2183 1.84676Z" fill="white"/>
</g>
</g>
<defs>
<clipPath id="clip0_2_166">
<rect width="14" height="12" fill="white"/>
</clipPath>
<clipPath id="clip1_2_166">
<rect width="14" height="11.6667" fill="white" transform="translate(0 0.166748)"/>
</clipPath>
</defs>
</svg>
