<svg width="120" height="40" viewBox="0 0 120 40" fill="none" xmlns="http://www.w3.org/2000/svg">
<g clip-path="url(#clip0_2_103)">
<path d="M110.135 0.00013H9.53471C9.16801 0.00013 8.8057 0.00013 8.43997 0.00213001C8.13382 0.00413001 7.83011 0.00994003 7.52102 0.01483C6.84953 0.0227319 6.17962 0.0818065 5.51711 0.191541C4.85554 0.303663 4.21468 0.515047 3.61623 0.818542C3.01851 1.1246 2.47235 1.5223 1.99758 1.99721C1.52031 2.47077 1.12247 3.01815 0.819352 3.6183C0.515402 4.21725 0.304641 4.85908 0.194351 5.52162C0.0830112 6.18333 0.0230984 6.85267 0.01515 7.52363C0.00587002 7.83023 0.00489001 8.13785 0 8.44449V31.5588C0.00489001 31.8693 0.00587002 32.1701 0.01515 32.4807C0.0231009 33.1516 0.0830136 33.8209 0.194351 34.4826C0.304337 35.1455 0.51511 35.7877 0.819352 36.3869C1.12233 36.9851 1.52022 37.5303 1.99758 38.0012C2.47055 38.4782 3.01706 38.8762 3.61623 39.1799C4.21468 39.4842 4.85546 39.6969 5.51711 39.8107C6.17974 39.9196 6.84958 39.9787 7.52102 39.9875C7.83011 39.9943 8.13382 39.9982 8.43997 39.9982C8.80569 40.0002 9.16803 40.0002 9.53471 40.0002H110.135C110.494 40.0002 110.86 40.0002 111.219 39.9982C111.524 39.9982 111.836 39.9943 112.141 39.9875C112.811 39.9792 113.48 39.9201 114.141 39.8107C114.805 39.6961 115.448 39.4835 116.049 39.1799C116.648 38.876 117.194 38.4781 117.666 38.0012C118.143 37.5284 118.541 36.9837 118.848 36.3869C119.15 35.7873 119.359 35.1452 119.467 34.4826C119.579 33.8209 119.641 33.1517 119.653 32.4807C119.657 32.1701 119.657 31.8693 119.657 31.5588C119.664 31.1955 119.664 30.8342 119.664 30.465V9.53628C119.664 9.17007 119.664 8.80679 119.657 8.44449C119.657 8.13785 119.657 7.83023 119.653 7.52359C119.641 6.85257 119.579 6.18338 119.467 5.52158C119.358 4.85942 119.15 4.21764 118.848 3.61826C118.231 2.41533 117.252 1.43616 116.049 0.818452C115.448 0.515699 114.805 0.304371 114.141 0.19145C113.48 0.081233 112.811 0.0221378 112.141 0.01469C111.836 0.00981003 111.524 0.00395001 111.219 0.00200001C110.86 0 110.494 0.00013 110.135 0.00013Z" fill="#A6A6A6"/>
<path d="M8.44489 39.1251C8.14021 39.1251 7.84289 39.1212 7.5406 39.1144C6.91438 39.1063 6.28962 39.0518 5.67145 38.9513C5.09504 38.8521 4.53665 38.6674 4.01471 38.4034C3.49755 38.1417 3.02586 37.7984 2.6177 37.3868C2.20364 36.9801 1.85892 36.5084 1.59719 35.9903C1.33258 35.4689 1.14945 34.91 1.05419 34.3331C0.951313 33.7132 0.895653 33.0864 0.887688 32.4581C0.881348 32.2472 0.873048 31.545 0.873048 31.545V8.44439C0.873048 8.44439 0.881888 7.75298 0.887738 7.54985C0.895364 6.92253 0.950701 6.2967 1.05327 5.67777C1.14871 5.09929 1.33198 4.53879 1.59673 4.01567C1.8575 3.49798 2.20031 3.0259 2.61187 2.61772C3.02298 2.20566 3.49618 1.86064 4.01422 1.59524C4.53496 1.33213 5.09229 1.14877 5.66754 1.0513C6.28774 0.949868 6.91466 0.895028 7.54306 0.887242L8.44538 0.875032H111.214L112.127 0.887732C112.75 0.895131 113.371 0.949482 113.986 1.05032C114.567 1.14901 115.13 1.33365 115.657 1.59817C116.694 2.13302 117.539 2.9792 118.072 4.01811C118.332 4.53762 118.513 5.09355 118.607 5.66703C118.711 6.29104 118.769 6.92179 118.781 7.55425C118.784 7.83745 118.784 8.14165 118.784 8.44439C118.791 8.81939 118.791 9.17632 118.791 9.53618V30.4649C118.791 30.8282 118.791 31.1827 118.784 31.5401C118.784 31.8653 118.784 32.1632 118.78 32.4698C118.768 33.091 118.711 33.7105 118.609 34.3233C118.515 34.9044 118.333 35.4676 118.069 35.9933C117.805 36.5057 117.462 36.9734 117.053 37.379C116.645 37.7928 116.172 38.1381 115.654 38.4015C115.128 38.6675 114.566 38.8529 113.986 38.9513C113.368 39.0523 112.743 39.1068 112.117 39.1144C111.824 39.1212 111.517 39.1251 111.219 39.1251L110.135 39.1271L8.44489 39.1251Z" fill="black"/>
<path d="M24.7694 20.3011C24.7802 19.4664 25.0019 18.648 25.4139 17.922C25.826 17.196 26.415 16.5861 27.1261 16.1489C26.6743 15.5037 26.0784 14.9727 25.3855 14.5982C24.6927 14.2236 23.922 14.0157 23.1348 13.9911C21.4555 13.8148 19.8275 14.996 18.9717 14.996C18.0994 14.996 16.7819 14.0086 15.3631 14.0378C14.4454 14.0674 13.551 14.3343 12.7671 14.8124C11.9832 15.2905 11.3365 15.9634 10.89 16.7658C8.95594 20.1143 10.3986 25.0355 12.2513 27.7422C13.1782 29.0676 14.2615 30.5481 15.679 30.4956C17.0661 30.4381 17.5842 29.6111 19.2586 29.6111C20.9174 29.6111 21.4034 30.4956 22.8497 30.4623C24.3381 30.4381 25.2759 29.131 26.1703 27.793C26.8363 26.8486 27.3488 25.8049 27.6888 24.7004C26.824 24.3347 26.0861 23.7225 25.567 22.9401C25.0478 22.1578 24.7705 21.24 24.7694 20.3011Z" fill="white"/>
<path d="M22.0374 12.211C22.849 11.2368 23.2488 9.98457 23.152 8.72029C21.9121 8.85052 20.7668 9.4431 19.9443 10.38C19.5421 10.8376 19.2341 11.3701 19.0378 11.9469C18.8416 12.5237 18.7609 13.1335 18.8005 13.7415C19.4207 13.7479 20.0342 13.6134 20.5949 13.3483C21.1556 13.0832 21.6488 12.6944 22.0374 12.211Z" fill="white"/>
<path d="M42.3026 27.1399H37.5691L36.4323 30.4965H34.4273L38.9109 18.0781H40.994L45.4776 30.4965H43.4384L42.3026 27.1399ZM38.0593 25.591H41.8114L39.9618 20.1436H39.91L38.0593 25.591Z" fill="white"/>
<path d="M55.1601 25.9699C55.1601 28.7835 53.6542 30.5912 51.3816 30.5912C50.806 30.6213 50.2334 30.4887 49.7296 30.2085C49.2258 29.9284 48.8111 29.512 48.5329 29.0071H48.4899V33.4917H46.6314V21.4424H48.4304V22.9483H48.4645C48.7555 22.4458 49.1773 22.0316 49.6849 21.7498C50.1926 21.4679 50.7671 21.329 51.3475 21.3477C53.6454 21.3477 55.1601 23.1641 55.1601 25.9699ZM53.2499 25.9699C53.2499 24.1368 52.3026 22.9317 50.8572 22.9317C49.4372 22.9317 48.4821 24.1622 48.4821 25.9699C48.4821 27.7942 49.4372 29.0159 50.8572 29.0159C52.3026 29.0159 53.2499 27.8196 53.2499 25.9699Z" fill="white"/>
<path d="M65.125 25.9699C65.125 28.7835 63.6191 30.5912 61.3465 30.5912C60.7708 30.6213 60.1983 30.4887 59.6945 30.2085C59.1907 29.9284 58.776 29.512 58.4978 29.0071H58.4548V33.4917H56.5963V21.4424H58.3952V22.9483H58.4294C58.7203 22.4458 59.1421 22.0316 59.6497 21.7498C60.1574 21.4679 60.732 21.3289 61.3123 21.3477C63.6103 21.3477 65.125 23.1641 65.125 25.9699ZM63.2147 25.9699C63.2147 24.1368 62.2674 22.9317 60.8221 22.9317C59.4021 22.9317 58.447 24.1622 58.447 25.9699C58.447 27.7942 59.4021 29.0159 60.8221 29.0159C62.2674 29.0159 63.2147 27.8196 63.2147 25.9699Z" fill="white"/>
<path d="M71.7107 27.0364C71.8484 28.2679 73.0448 29.0765 74.6796 29.0765C76.246 29.0765 77.373 28.2679 77.373 27.1575C77.373 26.1936 76.6933 25.6164 75.0839 25.2209L73.4745 24.8332C71.1941 24.2824 70.1355 23.2159 70.1355 21.4854C70.1355 19.3427 72.0027 17.871 74.6542 17.871C77.2783 17.871 79.0772 19.3427 79.1377 21.4854H77.2617C77.1494 20.2461 76.1249 19.498 74.6278 19.498C73.1307 19.498 72.1062 20.2549 72.1062 21.3565C72.1062 22.2345 72.7605 22.7511 74.3612 23.1466L75.7294 23.4825C78.2773 24.0851 79.336 25.1086 79.336 26.925C79.336 29.2484 77.4853 30.7035 74.5418 30.7035C71.7878 30.7035 69.9284 29.2825 69.8083 27.0364L71.7107 27.0364Z" fill="white"/>
<path d="M83.3465 19.2998V21.4424H85.0683V22.9142H83.3465V27.9056C83.3465 28.681 83.6913 29.0423 84.4481 29.0423C84.6525 29.0388 84.8566 29.0244 85.0595 28.9993V30.4623C84.7192 30.5258 84.3733 30.5546 84.0272 30.5482C82.1941 30.5482 81.4793 29.8597 81.4793 28.1038V22.9142H80.1628V21.4424H81.4792V19.2998H83.3465Z" fill="white"/>
<path d="M86.0652 25.9699C86.0652 23.1212 87.743 21.3311 90.3593 21.3311C92.9844 21.3311 94.6544 23.1212 94.6544 25.9699C94.6544 28.8265 92.9932 30.6088 90.3593 30.6088C87.7264 30.6088 86.0652 28.8265 86.0652 25.9699ZM92.7608 25.9699C92.7608 24.0158 91.8652 22.8624 90.3593 22.8624C88.8534 22.8624 87.9588 24.0246 87.9588 25.9699C87.9588 27.9319 88.8534 29.0765 90.3593 29.0765C91.8652 29.0765 92.7608 27.9319 92.7608 25.9699Z" fill="white"/>
<path d="M96.1863 21.4423H97.9588V22.9834H98.0018C98.1218 22.5021 98.4037 22.0767 98.8003 21.7788C99.1969 21.4809 99.684 21.3286 100.18 21.3476C100.394 21.3468 100.607 21.3701 100.816 21.4169V23.1553C100.546 23.0726 100.264 23.0347 99.9814 23.043C99.7114 23.032 99.4422 23.0796 99.1924 23.1825C98.9425 23.2854 98.7179 23.4411 98.5339 23.639C98.3499 23.8369 98.2109 24.0723 98.1265 24.329C98.0421 24.5856 98.0142 24.8576 98.0448 25.126V30.4963H96.1863L96.1863 21.4423Z" fill="white"/>
<path d="M109.385 27.8372C109.135 29.4808 107.534 30.6088 105.486 30.6088C102.852 30.6088 101.218 28.8441 101.218 26.0129C101.218 23.173 102.861 21.3311 105.408 21.3311C107.913 21.3311 109.488 23.0519 109.488 25.7971V26.4338H103.094V26.5461C103.064 26.8793 103.106 27.215 103.216 27.5309C103.326 27.8467 103.502 28.1355 103.733 28.3781C103.963 28.6206 104.242 28.8114 104.552 28.9377C104.862 29.064 105.195 29.123 105.529 29.1107C105.968 29.1518 106.409 29.0501 106.786 28.8207C107.163 28.5912 107.455 28.2463 107.62 27.8372L109.385 27.8372ZM103.102 25.135H107.629C107.646 24.8353 107.6 24.5355 107.496 24.2543C107.391 23.9731 107.229 23.7165 107.021 23.5008C106.812 23.285 106.561 23.1146 106.284 23.0004C106.006 22.8862 105.708 22.8306 105.408 22.837C105.105 22.8352 104.805 22.8934 104.525 23.0081C104.245 23.1229 103.991 23.2919 103.776 23.5056C103.562 23.7192 103.392 23.9732 103.276 24.2528C103.161 24.5325 103.102 24.8323 103.102 25.135Z" fill="white"/>
<path d="M37.8264 8.73097C38.216 8.70301 38.607 8.76187 38.9711 8.90331C39.3352 9.04475 39.6634 9.26523 39.932 9.54887C40.2006 9.8325 40.4029 10.1722 40.5243 10.5435C40.6457 10.9148 40.6832 11.3084 40.6341 11.6959C40.6341 13.6022 39.6038 14.698 37.8264 14.698H35.671V8.73097H37.8264ZM36.5978 13.8542H37.7228C38.0013 13.8708 38.2799 13.8251 38.5384 13.7205C38.797 13.6159 39.0289 13.455 39.2174 13.2494C39.4059 13.0438 39.5462 12.7988 39.6281 12.5322C39.71 12.2655 39.7313 11.984 39.6907 11.7081C39.7284 11.4332 39.7048 11.1535 39.6217 10.8888C39.5386 10.6241 39.398 10.3811 39.2099 10.1772C39.0218 9.97322 38.791 9.8134 38.5339 9.70916C38.2768 9.60492 37.9998 9.55884 37.7228 9.57421H36.5978V13.8542Z" fill="white"/>
<path d="M41.681 12.4445C41.6527 12.1486 41.6865 11.85 41.7804 11.5679C41.8742 11.2858 42.026 11.0265 42.2259 10.8065C42.4259 10.5865 42.6696 10.4107 42.9415 10.2904C43.2133 10.1702 43.5073 10.108 43.8046 10.108C44.1019 10.108 44.3959 10.1702 44.6678 10.2904C44.9396 10.4107 45.1833 10.5865 45.3833 10.8065C45.5832 11.0265 45.735 11.2858 45.8288 11.5679C45.9227 11.85 45.9565 12.1486 45.9282 12.4445C45.9571 12.7407 45.9236 13.0397 45.83 13.3223C45.7364 13.6048 45.5848 13.8646 45.3848 14.085C45.1848 14.3055 44.9409 14.4816 44.6687 14.6021C44.3966 14.7227 44.1023 14.785 43.8046 14.785C43.507 14.785 43.2126 14.7227 42.9405 14.6021C42.6684 14.4816 42.4245 14.3055 42.2245 14.085C42.0245 13.8646 41.8728 13.6048 41.7792 13.3223C41.6856 13.0397 41.6522 12.7407 41.681 12.4445ZM45.0141 12.4445C45.0141 11.4684 44.5756 10.8976 43.8061 10.8976C43.0336 10.8976 42.599 11.4684 42.599 12.4445C42.599 13.4284 43.0336 13.9949 43.8061 13.9949C44.5757 13.9948 45.0141 13.4245 45.0141 12.4445Z" fill="white"/>
<path d="M51.5736 14.698H50.6517L49.721 11.3815H49.6507L48.7239 14.698H47.8107L46.5695 10.195H47.4709L48.2776 13.6311H48.344L49.2698 10.195H50.1224L51.0482 13.6311H51.1185L51.9212 10.195H52.8099L51.5736 14.698Z" fill="white"/>
<path d="M53.8537 10.195H54.7092V10.9104H54.7756C54.8882 10.6534 55.0783 10.438 55.3191 10.2942C55.56 10.1504 55.8398 10.0853 56.1194 10.1081C56.3385 10.0916 56.5585 10.1246 56.7631 10.2047C56.9677 10.2848 57.1517 10.4099 57.3014 10.5708C57.451 10.7316 57.5626 10.9241 57.6278 11.1339C57.693 11.3438 57.7102 11.5656 57.678 11.7829V14.698H56.7893V12.0061C56.7893 11.2824 56.4749 10.9226 55.8176 10.9226C55.6689 10.9156 55.5203 10.941 55.3823 10.9968C55.2442 11.0526 55.1199 11.1376 55.0177 11.246C54.9156 11.3544 54.8381 11.4836 54.7906 11.6247C54.7431 11.7659 54.7266 11.9156 54.7424 12.0637V14.6981H53.8537L53.8537 10.195Z" fill="white"/>
<path d="M59.0939 8.43708H59.9826V14.698H59.0939V8.43708Z" fill="white"/>
<path d="M61.218 12.4446C61.1897 12.1486 61.2235 11.85 61.3174 11.5679C61.4113 11.2859 61.5631 11.0265 61.763 10.8065C61.963 10.5865 62.2067 10.4107 62.4786 10.2905C62.7505 10.1702 63.0445 10.108 63.3418 10.108C63.6391 10.108 63.9331 10.1702 64.205 10.2905C64.4769 10.4107 64.7206 10.5865 64.9206 10.8065C65.1206 11.0265 65.2723 11.2859 65.3662 11.5679C65.4601 11.85 65.494 12.1486 65.4657 12.4446C65.4945 12.7408 65.461 13.0398 65.3674 13.3224C65.2737 13.6049 65.122 13.8647 64.922 14.0851C64.722 14.3055 64.4781 14.4817 64.2059 14.6022C63.9338 14.7227 63.6395 14.785 63.3418 14.785C63.0442 14.785 62.7498 14.7227 62.4777 14.6022C62.2055 14.4817 61.9616 14.3055 61.7616 14.0851C61.5616 13.8647 61.4099 13.6049 61.3162 13.3224C61.2226 13.0398 61.1891 12.7408 61.218 12.4446ZM64.5511 12.4446C64.5511 11.4685 64.1126 10.8977 63.343 10.8977C62.5705 10.8977 62.136 11.4685 62.136 12.4446C62.136 13.4285 62.5706 13.9949 63.343 13.9949C64.1126 13.9949 64.5511 13.4246 64.5511 12.4446Z" fill="white"/>
<path d="M66.4011 13.4246C66.4011 12.614 67.0046 12.1467 68.0759 12.0803L69.2957 12.01V11.6213C69.2957 11.1457 68.9813 10.8771 68.3738 10.8771C67.8777 10.8771 67.5339 11.0592 67.4353 11.3776H66.5749C66.6657 10.6041 67.3933 10.108 68.4148 10.108C69.5438 10.108 70.1805 10.6701 70.1805 11.6213V14.698H69.325V14.0652H69.2547C69.112 14.2922 68.9116 14.4773 68.6739 14.6015C68.4363 14.7257 68.17 14.7846 67.9021 14.7722C67.7131 14.7919 67.522 14.7717 67.3412 14.713C67.1605 14.6543 66.994 14.5584 66.8526 14.4314C66.7112 14.3045 66.5979 14.1493 66.5202 13.9758C66.4424 13.8024 66.4018 13.6146 66.4011 13.4246ZM69.2957 13.0398V12.6633L68.1961 12.7336C67.5759 12.7751 67.2947 12.9861 67.2947 13.383C67.2947 13.7883 67.6462 14.0242 68.1297 14.0242C68.2713 14.0385 68.4144 14.0242 68.5504 13.9821C68.6864 13.94 68.8126 13.871 68.9214 13.7792C69.0302 13.6873 69.1194 13.5745 69.1837 13.4475C69.248 13.3205 69.2861 13.1818 69.2957 13.0398Z" fill="white"/>
<path d="M71.3483 12.4446C71.3483 11.0217 72.0798 10.1203 73.2176 10.1203C73.499 10.1073 73.7783 10.1747 74.0228 10.3146C74.2674 10.4545 74.467 10.6611 74.5985 10.9103H74.6649V8.43708H75.5536V14.698H74.702V13.9866H74.6317C74.4901 14.2341 74.2834 14.4381 74.0342 14.5766C73.7849 14.7151 73.5025 14.7828 73.2176 14.7723C72.072 14.7723 71.3483 13.8709 71.3483 12.4446ZM72.2664 12.4446C72.2664 13.3997 72.7166 13.9744 73.4696 13.9744C74.2186 13.9744 74.6815 13.3914 74.6815 12.4485C74.6815 11.51 74.2137 10.9186 73.4696 10.9186C72.7214 10.9186 72.2664 11.4973 72.2664 12.4446Z" fill="white"/>
<path d="M79.2302 12.4445C79.2019 12.1486 79.2357 11.85 79.3296 11.5679C79.4234 11.2858 79.5752 11.0265 79.7751 10.8065C79.9751 10.5865 80.2188 10.4107 80.4907 10.2904C80.7625 10.1702 81.0565 10.108 81.3538 10.108C81.6511 10.108 81.9451 10.1702 82.217 10.2904C82.4888 10.4107 82.7325 10.5865 82.9325 10.8065C83.1324 11.0265 83.2842 11.2858 83.378 11.5679C83.4719 11.85 83.5057 12.1486 83.4774 12.4445C83.5063 12.7407 83.4728 13.0397 83.3792 13.3223C83.2856 13.6048 83.134 13.8646 82.934 14.085C82.734 14.3055 82.4901 14.4816 82.2179 14.6021C81.9458 14.7227 81.6514 14.785 81.3538 14.785C81.0562 14.785 80.7618 14.7227 80.4897 14.6021C80.2176 14.4816 79.9737 14.3055 79.7737 14.085C79.5737 13.8646 79.422 13.6048 79.3284 13.3223C79.2348 13.0397 79.2014 12.7407 79.2302 12.4445ZM82.5633 12.4445C82.5633 11.4684 82.1248 10.8976 81.3553 10.8976C80.5828 10.8976 80.1482 11.4684 80.1482 12.4445C80.1482 13.4284 80.5828 13.9949 81.3553 13.9949C82.1248 13.9948 82.5633 13.4245 82.5633 12.4445Z" fill="white"/>
<path d="M84.6697 10.195H85.5252V10.9104H85.5916C85.7042 10.6534 85.8942 10.438 86.1351 10.2942C86.376 10.1504 86.6558 10.0853 86.9354 10.1081C87.1545 10.0916 87.3745 10.1246 87.5791 10.2047C87.7837 10.2848 87.9677 10.4099 88.1174 10.5708C88.267 10.7316 88.3786 10.9241 88.4438 11.1339C88.509 11.3438 88.5262 11.5656 88.494 11.7829V14.698H87.6053V12.0061C87.6053 11.2824 87.2909 10.9226 86.6336 10.9226C86.4848 10.9156 86.3363 10.941 86.1983 10.9968C86.0602 11.0526 85.9359 11.1376 85.8337 11.246C85.7316 11.3544 85.6541 11.4836 85.6066 11.6247C85.5591 11.7659 85.5426 11.9156 85.5584 12.0637V14.6981H84.6697V10.195Z" fill="white"/>
<path d="M93.5154 9.07382V10.2155H94.4911V10.964H93.5154V13.2795C93.5154 13.7512 93.7098 13.9578 94.1522 13.9578C94.2655 13.9574 94.3786 13.9506 94.4911 13.9373V14.6775C94.3315 14.7061 94.1698 14.7213 94.0077 14.7229C93.0193 14.7229 92.6258 14.3753 92.6258 13.5071V10.964H91.9109V10.2154H92.6258V9.07382H93.5154Z" fill="white"/>
<path d="M95.7049 8.43708H96.5858V10.9186H96.6561C96.7742 10.6593 96.9694 10.4427 97.2151 10.2983C97.4608 10.154 97.7451 10.0889 98.0291 10.1119C98.2471 10.1001 98.465 10.1365 98.6673 10.2185C98.8695 10.3006 99.0512 10.4262 99.1994 10.5866C99.3475 10.7469 99.4584 10.938 99.5242 11.1461C99.59 11.3543 99.609 11.5744 99.5799 11.7907V14.6981H98.6904V12.01C98.6904 11.2907 98.3553 10.9264 97.7274 10.9264C97.5747 10.9139 97.421 10.9349 97.2773 10.9879C97.1335 11.041 97.003 11.1248 96.895 11.2336C96.787 11.3423 96.7041 11.4733 96.652 11.6175C96.6 11.7616 96.58 11.9154 96.5936 12.0681V14.698H95.7049L95.7049 8.43708Z" fill="white"/>
<path d="M104.762 13.4823C104.641 13.8938 104.379 14.2498 104.023 14.488C103.666 14.7261 103.237 14.8313 102.81 14.785C102.514 14.7929 102.219 14.736 101.946 14.6185C101.674 14.501 101.43 14.3255 101.232 14.1044C101.034 13.8833 100.887 13.6217 100.8 13.3379C100.714 13.054 100.69 12.7547 100.73 12.4607C100.691 12.1658 100.715 11.8659 100.802 11.5812C100.888 11.2965 101.035 11.0338 101.232 10.8107C101.428 10.5876 101.671 10.4094 101.943 10.2882C102.214 10.167 102.509 10.1056 102.806 10.1081C104.059 10.1081 104.815 10.9641 104.815 12.3782V12.6883H101.636V12.7381C101.622 12.9033 101.642 13.0697 101.697 13.2264C101.751 13.3832 101.837 13.5269 101.95 13.6484C102.063 13.7698 102.2 13.8664 102.352 13.9318C102.505 13.9972 102.669 14.03 102.835 14.0281C103.047 14.0537 103.263 14.0154 103.454 13.9182C103.644 13.821 103.802 13.6692 103.906 13.4822L104.762 13.4823ZM101.636 12.031H103.91C103.921 11.8799 103.901 11.7281 103.85 11.5854C103.799 11.4426 103.719 11.3122 103.614 11.2023C103.51 11.0924 103.384 11.0056 103.244 10.9475C103.104 10.8893 102.953 10.861 102.802 10.8645C102.648 10.8626 102.495 10.8914 102.353 10.9494C102.211 11.0073 102.081 11.0932 101.973 11.2019C101.864 11.3106 101.778 11.44 101.72 11.5824C101.662 11.7248 101.634 11.8773 101.636 12.031Z" fill="white"/>
</g>
<defs>
<clipPath id="clip0_2_103">
<rect width="119.66" height="39.9986" fill="white"/>
</clipPath>
</defs>
</svg>
