<svg width="113" height="16" viewBox="0 0 113 16" fill="none" xmlns="http://www.w3.org/2000/svg">
<g clip-path="url(#clip0_2_53)">
<path d="M19.5 3.06255H22.9958C24.6176 3.06255 25.7896 3.29883 26.5118 3.77139C27.2341 4.24395 27.5952 4.99037 27.5952 6.01066C27.5952 6.69802 27.418 7.26992 27.0636 7.72637C26.7092 8.18282 26.199 8.47011 25.5332 8.58825V8.6688C26.3601 8.82452 26.9683 9.13195 27.3576 9.59109C27.7469 10.0502 27.9416 10.6718 27.9416 11.4558C27.9416 12.5137 27.5724 13.342 26.834 13.9408C26.0957 14.5395 25.0687 14.8389 23.753 14.8389H19.5V3.06255ZM21.4251 7.92774H23.2778C24.0833 7.92774 24.6713 7.8002 25.0418 7.54513C25.4123 7.29006 25.5976 6.85644 25.5976 6.24426C25.5976 5.69115 25.3976 5.29109 24.9975 5.04407C24.5974 4.79705 23.9624 4.67354 23.0925 4.67354H21.4251V7.92774ZM21.4251 9.4904V13.2198H23.4711C24.2766 13.2198 24.8847 13.0655 25.2955 12.7567C25.7063 12.4479 25.9117 11.9606 25.9117 11.2947C25.9117 10.6825 25.7023 10.2288 25.2835 9.93342C24.8646 9.63807 24.2283 9.4904 23.3744 9.4904H21.4251ZM29.8954 14.8389V3.06255H31.8205V13.1876H36.8065V14.8389H29.8954ZM48.4666 8.93461C48.4666 10.8517 47.9873 12.3418 47.0287 13.4051C46.0702 14.4684 44.713 15 42.957 15C41.1795 15 39.8142 14.4724 38.861 13.4172C37.9079 12.362 37.4313 10.8624 37.4313 8.9185C37.4313 6.97456 37.9105 5.48173 38.8691 4.43995C39.8276 3.39817 41.1956 2.87729 42.9731 2.87729C44.7237 2.87729 46.0769 3.40622 47.0328 4.46411C47.9886 5.522 48.4666 7.01215 48.4666 8.93461ZM39.4772 8.93461C39.4772 10.3845 39.7699 11.484 40.3552 12.2331C40.9405 12.9822 41.8078 13.3568 42.957 13.3568C44.1008 13.3568 44.964 12.9862 45.5466 12.2452C46.1293 11.5041 46.4206 10.4006 46.4206 8.93461C46.4206 7.49008 46.132 6.39462 45.5547 5.64819C44.9774 4.90176 44.1169 4.52855 42.9731 4.52855C41.8185 4.52855 40.9473 4.90176 40.3592 5.64819C39.7712 6.39462 39.4772 7.49008 39.4772 8.93461ZM55.5111 4.54466C54.4049 4.54466 53.5349 4.93667 52.9013 5.72069C52.2676 6.5047 51.9508 7.58674 51.9508 8.96683C51.9508 10.4114 52.2555 11.5041 52.865 12.2452C53.4745 12.9862 54.3565 13.3568 55.5111 13.3568C56.0105 13.3568 56.4938 13.3071 56.961 13.2078C57.4282 13.1084 57.9141 12.9809 58.4189 12.8251V14.4764C57.4953 14.8255 56.4482 15 55.2775 15C53.5537 15 52.23 14.4778 51.3064 13.4333C50.3828 12.3888 49.921 10.8947 49.921 8.95072C49.921 7.72636 50.1451 6.65506 50.5935 5.73679C51.0419 4.81853 51.6904 4.11507 52.5388 3.6264C53.3873 3.13773 54.3834 2.8934 55.5272 2.8934C56.7301 2.8934 57.8416 3.14578 58.8619 3.65056L58.1692 5.2535C57.7718 5.06555 57.3516 4.90042 56.9086 4.75812C56.4656 4.61581 55.9998 4.54466 55.5111 4.54466ZM69.4507 14.8389H67.2194L63.5222 9.50651L62.3865 10.4328V14.8389H60.4613V3.06255H62.3865V8.68491C62.9127 8.04051 63.4363 7.42028 63.9572 6.82421L67.1389 3.06255H69.3298C67.2731 5.47905 65.7991 7.2001 64.9077 8.22577L69.4507 14.8389ZM75.6494 3.63445C74.1727 3.63445 73.0101 4.10701 72.1616 5.05212C71.3132 5.99724 70.8889 7.29139 70.8889 8.93461C70.8889 10.6154 71.289 11.9203 72.0891 12.8493C72.8893 13.7783 74.0331 14.2428 75.5205 14.2428C76.5086 14.2428 77.4161 14.1166 78.2431 13.8642V14.5892C77.4645 14.863 76.4925 15 75.3272 15C73.6733 15 72.3711 14.4657 71.4206 13.397C70.4701 12.3284 69.9949 10.8356 69.9949 8.9185C69.9949 7.72099 70.2217 6.6658 70.6755 5.7529C71.1293 4.84001 71.7817 4.13521 72.6328 3.63848C73.484 3.14176 74.4734 2.8934 75.6011 2.8934C76.7503 2.8934 77.7786 3.1082 78.6861 3.53779L78.3559 4.27885C77.4967 3.84925 76.5945 3.63445 75.6494 3.63445ZM86.81 14.8389H80.3741V3.06255H86.81V3.81972H81.1957V8.2741H86.4959V9.03127H81.1957V14.0817H86.81V14.8389ZM89.8029 9.70788V14.8389H88.9813V3.06255H91.7844C93.2451 3.06255 94.3244 3.33239 95.0225 3.87208C95.7206 4.41176 96.0697 5.22396 96.0697 6.3087C96.0697 7.09808 95.8616 7.76395 95.4454 8.30632C95.0292 8.84869 94.3969 9.23801 93.5485 9.47429L96.7463 14.8389H95.7636L92.7269 9.70788H89.8029ZM89.8029 8.99905H92.0503C93.0437 8.99905 93.8143 8.77754 94.362 8.33452C94.9098 7.89149 95.1836 7.2377 95.1836 6.37314C95.1836 5.47635 94.9151 4.8239 94.3781 4.41578C93.8411 4.00766 92.9658 3.80361 91.7522 3.80361H89.8029V8.99905ZM101.358 14.8389H100.529V3.83583H96.7025V3.06255H105.184V3.83583H101.358V14.8389ZM112.938 11.8022C112.938 12.7849 112.577 13.5635 111.854 14.1381C111.132 14.7127 110.172 15 108.975 15C107.536 15 106.432 14.8416 105.664 14.5247V13.7031C106.513 14.0629 107.595 14.2428 108.91 14.2428C109.877 14.2428 110.643 14.0213 111.21 13.5783C111.776 13.1353 112.06 12.554 112.06 11.8344C112.06 11.3887 111.966 11.0195 111.778 10.7268C111.59 10.4342 111.284 10.167 110.86 9.92537C110.435 9.68372 109.812 9.42328 108.991 9.14404C107.788 8.73055 106.957 8.2835 106.498 7.80289C106.039 7.32227 105.809 6.68191 105.809 5.88178C105.809 5.00111 106.154 4.28288 106.844 3.72709C107.534 3.17129 108.422 2.8934 109.506 2.8934C110.613 2.8934 111.652 3.10283 112.624 3.52168L112.326 4.23052C111.348 3.8224 110.414 3.61834 109.522 3.61834C108.652 3.61834 107.96 3.81972 107.444 4.22247C106.929 4.62521 106.671 5.17295 106.671 5.86567C106.671 6.30064 106.75 6.65774 106.909 6.93698C107.067 7.21622 107.326 7.46726 107.686 7.69012C108.046 7.91297 108.663 8.18013 109.539 8.49159C110.457 8.80842 111.147 9.11584 111.609 9.41388C112.07 9.71191 112.407 10.0502 112.62 10.4288C112.832 10.8074 112.938 11.2652 112.938 11.8022Z" fill="white" fill-opacity="0.37"/>
<path d="M10.9581 11.4114C10.9581 11.863 10.5919 12.2291 10.1403 12.2291H0.817766C0.366127 12.2291 0 11.863 0 11.4114C0 10.9597 0.366127 10.5936 0.817766 10.5936H10.1403C10.5919 10.5936 10.9581 10.9597 10.9581 11.4114Z" fill="white" fill-opacity="0.37"/>
<path d="M14.2291 11.4114C14.2291 11.863 13.863 12.2291 13.4114 12.2291C12.9597 12.2291 12.5936 11.863 12.5936 11.4114C12.5936 10.9597 12.9597 10.5936 13.4114 10.5936C13.863 10.5936 14.2291 10.9597 14.2291 11.4114Z" fill="white" fill-opacity="0.37"/>
<path d="M9.48609 14.6824C9.48609 15.1341 9.11996 15.5002 8.66832 15.5002C8.21668 15.5002 7.85056 15.1341 7.85056 14.6824C7.85056 14.2308 8.21668 13.8647 8.66832 13.8647C9.11996 13.8647 9.48609 14.2308 9.48609 14.6824Z" fill="white" fill-opacity="0.37"/>
<path d="M14.2291 4.86922C14.2291 5.32086 13.863 5.68699 13.4114 5.68699C12.9597 5.68699 12.5936 5.32086 12.5936 4.86922C12.5936 4.41758 12.9597 4.05145 13.4114 4.05145C13.863 4.05145 14.2291 4.41758 14.2291 4.86922Z" fill="white" fill-opacity="0.37"/>
<path d="M1.63553 4.86922C1.63553 5.32086 1.26941 5.68699 0.817766 5.68699C0.366127 5.68699 0 5.32086 0 4.86922C0 4.41758 0.366127 4.05145 0.817766 4.05145C1.26941 4.05145 1.63553 4.41758 1.63553 4.86922Z" fill="white" fill-opacity="0.37"/>
<path d="M7.19633 2.41593C7.64797 2.41593 8.0141 2.0498 8.0141 1.59816C8.0141 1.14652 7.64797 0.780396 7.19633 0.780396C6.74469 0.780396 6.37857 1.14652 6.37857 1.59816C6.37857 2.0498 6.74469 2.41593 7.19633 2.41593Z" fill="white" fill-opacity="0.37"/>
<path d="M6.37857 8.14031C6.37857 8.59195 6.01245 8.95807 5.56081 8.95807C5.10917 8.95807 4.74304 8.59195 4.74304 8.14031C4.74304 7.68867 5.10917 7.32254 5.56081 7.32254C6.01245 7.32254 6.37857 7.68867 6.37857 8.14031Z" fill="white" fill-opacity="0.37"/>
<path d="M14.2291 1.59816C14.2291 2.0498 13.863 2.41593 13.4114 2.41593H10.4674C10.0158 2.41593 9.64964 2.0498 9.64964 1.59816C9.64964 1.14652 10.0158 0.780396 10.4674 0.780396H13.4114C13.863 0.780396 14.2291 1.14652 14.2291 1.59816Z" fill="white" fill-opacity="0.37"/>
<path d="M3.92528 2.41593C4.37692 2.41593 4.74305 2.0498 4.74305 1.59816C4.74305 1.14652 4.37692 0.780396 3.92528 0.780396H0.817771C0.366131 0.780396 4.76837e-06 1.14652 4.76837e-06 1.59816C4.76837e-06 2.0498 0.366131 2.41593 0.817771 2.41593H3.92528Z" fill="white" fill-opacity="0.37"/>
<path d="M14.2291 8.14031C14.2291 8.59195 13.863 8.95807 13.4114 8.95807H8.83188C8.38024 8.95807 8.01411 8.59195 8.01411 8.14031C8.01411 7.68867 8.38024 7.32254 8.83188 7.32254H13.4114C13.863 7.32254 14.2291 7.68867 14.2291 8.14031Z" fill="white" fill-opacity="0.37"/>
<path d="M3.10751 8.14031C3.10751 8.59195 2.74139 8.95807 2.28975 8.95807H0.817766C0.366127 8.95807 0 8.59195 0 8.14031C0 7.68867 0.366127 7.32254 0.817766 7.32254H2.28975C2.74139 7.32254 3.10751 7.68867 3.10751 8.14031Z" fill="white" fill-opacity="0.37"/>
<path d="M14.2291 14.6824C14.2291 15.1341 13.863 15.5002 13.4114 15.5002H11.9394C11.4878 15.5002 11.1216 15.1341 11.1216 14.6824C11.1216 14.2308 11.4878 13.8647 11.9394 13.8647H13.4114C13.863 13.8647 14.2291 14.2308 14.2291 14.6824Z" fill="white" fill-opacity="0.37"/>
<path d="M6.21502 14.6824C6.21502 15.1341 5.8489 15.5002 5.39726 15.5002H0.817766C0.366126 15.5002 0 15.1341 0 14.6824C0 14.2308 0.366126 13.8647 0.817766 13.8647H5.39726C5.8489 13.8647 6.21502 14.2308 6.21502 14.6824Z" fill="white" fill-opacity="0.37"/>
<path d="M10.9581 4.86922C10.9581 5.32086 10.5919 5.68699 10.1403 5.68699H4.08883C3.63719 5.68699 3.27106 5.32086 3.27106 4.86922C3.27106 4.41758 3.63719 4.05145 4.08883 4.05145H10.1403C10.5919 4.05145 10.9581 4.41758 10.9581 4.86922Z" fill="white" fill-opacity="0.37"/>
</g>
<defs>
<clipPath id="clip0_2_53">
<rect width="113" height="16" fill="white"/>
</clipPath>
</defs>
</svg>
